<?xml version="1.0" standalone="no"?>
<!DOCTYPE svg PUBLIC "-//W3C//DTD SVG 20010904//EN"
 "http://www.w3.org/TR/2001/REC-SVG-20010904/DTD/svg10.dtd">
<svg version="1.0" xmlns="http://www.w3.org/2000/svg"
 width="70.000000pt" height="70.000000pt" viewBox="0 0 70.000000 70.000000"
 preserveAspectRatio="xMidYMid meet">

<g transform="translate(0.000000,70.000000) scale(0.100000,-0.100000)"
fill="#000000" stroke="none">
<path d="M313 603 c-10 -3 -13 -49 -13 -181 0 -156 2 -185 22 -249 13 -40 26
-73 30 -73 3 0 16 28 27 62 18 54 21 86 21 249 0 161 -2 188 -16 193 -18 7
-53 7 -71 -1z m60 -20 c-13 -2 -33 -2 -45 0 -13 2 -3 4 22 4 25 0 35 -2 23 -4z
m17 -38 c0 -11 -11 -15 -40 -15 -29 0 -40 4 -40 15 0 11 11 15 40 15 29 0 40
-4 40 -15z m-53 -162 c-2 -27 -3 -5 -3 47 0 52 1 74 3 48 2 -27 2 -69 0 -95z
m30 0 c-2 -27 -3 -5 -3 47 0 52 1 74 3 48 2 -27 2 -69 0 -95z m7 -69 c9 -8 16
-26 16 -40 0 -21 -4 -24 -40 -24 -38 0 -40 2 -40 30 0 17 7 33 18 39 23 14 28
14 46 -5z m6 -98 c0 -20 -31 -49 -40 -39 -4 4 -11 18 -15 31 -6 19 -3 22 24
22 20 0 31 -5 31 -14z"/>
<path d="M208 478 c-7 -19 2 -38 17 -38 15 0 24 19 18 38 -3 6 -11 12 -18 12
-7 0 -15 -6 -17 -12z"/>
<path d="M471 442 c0 -7 -11 -17 -23 -22 -18 -7 -19 -9 -5 -9 10 -1 22 -11 27
-23 l9 -23 0 22 c1 12 9 24 19 26 15 4 15 5 0 6 -9 0 -19 9 -21 19 -3 9 -5 11
-6 4z"/>
<path d="M190 336 c0 -8 -8 -17 -17 -19 -17 -4 -17 -5 0 -6 10 -1 17 -9 17
-21 0 -11 5 -20 10 -20 6 0 10 9 10 19 0 11 8 22 18 24 16 4 16 5 0 6 -10 0
-18 8 -18 16 0 8 -4 15 -10 15 -5 0 -10 -6 -10 -14z"/>
<path d="M464 317 c-17 -19 11 -43 29 -25 11 10 12 15 1 25 -15 16 -16 16 -30
0z"/>
</g>
</svg>
